<?xml version="1.0" encoding="UTF-8" standalone="no"?>
<!DOCTYPE svg PUBLIC "-//W3C//DTD SVG 1.1//EN" "http://www.w3.org/Graphics/SVG/1.1/DTD/svg11.dtd">
<svg width="100%" height="100%" viewBox="0 0 32 32" version="1.1" xmlns="http://www.w3.org/2000/svg" xmlns:xlink="http://www.w3.org/1999/xlink" xml:space="preserve" style="fill-rule:evenodd;clip-rule:evenodd;stroke-linejoin:round;stroke-miterlimit:1.41421;fill: #fff;">
    <g transform="matrix(1.07992,0,0,1.07992,-1.2788,-2.75572)">
        <g transform="matrix(0.179329,2.19615e-17,-2.19615e-17,0.179329,-43.1428,-374.074)">
            <path d="M248.207,2163.4C246.564,2168.45 249.331,2173.88 254.386,2175.53L281.847,2184.45C286.903,2186.09 292.333,2183.32 293.975,2178.27C295.618,2173.22 292.851,2167.78 287.796,2166.14L260.335,2157.22C255.279,2155.58 249.85,2158.34 248.207,2163.4" style="fill-rule:nonzero;"/>
        </g>
        <g id="_4" transform="matrix(0.179329,2.19615e-17,-2.19615e-17,0.179329,-43.1428,-374.074)">
            <path d="M279.675,2260.25C283.975,2263.37 289.994,2262.42 293.119,2258.12L310.091,2234.76C313.215,2230.46 312.262,2224.44 307.961,2221.31C303.661,2218.19 297.642,2219.14 294.518,2223.44L277.546,2246.8C274.421,2251.1 275.375,2257.12 279.675,2260.25" style="fill-rule:nonzero;"/>
        </g>
        <g id="_3" transform="matrix(0.179329,2.19615e-17,-2.19615e-17,0.179329,-43.1428,-374.074)">
            <path d="M381.506,2260.25C385.806,2257.12 386.76,2251.1 383.635,2246.8L366.663,2223.44C363.539,2219.14 357.52,2218.19 353.22,2221.31C348.919,2224.44 347.966,2230.46 351.09,2234.76L368.062,2258.12C371.187,2262.42 377.206,2263.37 381.506,2260.25" style="fill-rule:nonzero;"/>
        </g>
        <g id="_2-key" transform="matrix(0.179329,2.19615e-17,-2.19615e-17,0.179329,-43.1428,-374.074)">
            <path d="M321.437,2193.14C319.794,2188.09 322.561,2182.66 327.616,2181.01C332.672,2179.37 338.102,2182.14 339.744,2187.19C341.387,2192.25 338.62,2197.68 333.565,2199.32C328.509,2200.96 323.08,2198.2 321.437,2193.14M359.457,2190.91L370.18,2187.42L373.269,2181.36L379.333,2184.45L382.423,2178.39L388.487,2181.47L391.577,2175.41L397.64,2178.5L405.53,2175.94C405.733,2175.87 405.926,2175.79 406.109,2175.68C406.657,2175.38 407.108,2174.91 407.397,2174.34L411.517,2166.26C412.12,2165.07 411.918,2163.69 411.113,2162.73C410.845,2162.41 410.51,2162.14 410.115,2161.94L402.03,2157.82C401.272,2157.44 400.391,2157.37 399.582,2157.63L353.509,2172.6C346.273,2163.16 333.624,2158.82 321.668,2162.71C306.502,2167.63 298.202,2183.92 303.13,2199.09C308.057,2214.26 324.347,2222.56 339.513,2217.63C351.469,2213.74 359.152,2202.8 359.457,2190.91" style="fill-rule:nonzero;"/>
        </g>
        <g id="_1" transform="matrix(0.179329,2.19615e-17,-2.19615e-17,0.179329,-43.1428,-374.074)">
            <path d="M330.59,2103.54C325.275,2103.54 320.965,2107.85 320.965,2113.17L320.965,2142.04C320.965,2147.36 325.275,2151.67 330.59,2151.67C335.906,2151.67 340.215,2147.36 340.215,2142.04L340.215,2113.17C340.215,2107.85 335.906,2103.54 330.59,2103.54" style="fill-rule:nonzero;"/>
        </g>
    </g>
</svg>
